<svg xmlns="http://www.w3.org/2000/svg" viewBox="0 0 64 64" width="64" height="64" role="img" aria-label="paperpony">
<defs><mask id="g3d" maskUnits="userSpaceOnUse" x="0" y="0" width="64" height="64"><g transform="translate(13.993 41.660) scale(0.05473 -0.05473)"><path d="M63 -186L63 527L197 527L211 454L218 454Q245 499 286.5 519Q328 539 379 539Q446 539 494.5 509Q543 479 569 418Q595 357 595 263Q595 170 569 109Q543 48 495 18Q447 -12 382 -12Q350 -12 322 -5Q294 2 271.5 17Q249 32 233 54L227 54L227 -186ZM328 116Q365 116 387.5 131Q410 146 420 175Q430 204 430 246L430 281Q430 323 420 352.5Q410 382 387.5 396.5Q365 411 328 411Q292 411 269.5 394.5Q247 378 236.5 347.5Q226 317 226 276L226 252Q226 222 231.5 197Q237 172 249.5 154Q262 136 281.5 126Q301 116 328 116Z" fill="#ffffff"></path><rect x="-300" y="213" width="1200" height="100" fill="#000000"></rect></g></mask></defs>
<rect x="0" y="0" width="64" height="64" fill="#818cf8"></rect>
<rect x="0" y="0" width="64" height="64" fill="#ffffff" mask="url(#g3d)"></rect>
</svg>